# xmcd CD database file
#
# Track frame offsets:
#	182
#	27280
#	47427
#	72002
#	96470
#	115382
#	134240
#	153705
#	173290
#	193342
#
# Disc length: 3057 seconds
#
# Revision: 2
# Processed by: cddbd v1.5.1PL0 Copyright (c) Steve Scherf et al.
# Submitted via: CDex 1.51
#
DISCID=8d0bef0a
DTITLE=The O'Jays - Heartbreaker
DYEAR=1993
DGENRE=R&B
TTITLE0=Cryin' The Blues
TTITLE1=One Wonderful Girl
TTITLE2=Somebody Else Will
TTITLE3=Show Me The Right Way
TTITLE4=Trouble
TTITLE5=Can't Let You Go
TTITLE6=Decisions
TTITLE7=No Can Do
TTITLE8=Heartbreaker
TTITLE9=He Loves You
EXTD=YEAR: 1993
EXTT0=
EXTT1=
EXTT2=
EXTT3=
EXTT4=
EXTT5=
EXTT6=
EXTT7=
EXTT8=
EXTT9=
PLAYORDER=
